<svg width="30" height="30" viewBox="0 0 30 30" fill="none" xmlns="http://www.w3.org/2000/svg">
<path fill-rule="evenodd" clip-rule="evenodd" d="M11.0002 1.66668C11.0002 2.0203 10.8597 2.35944 10.6096 2.60949C10.3596 2.85953 10.0205 3.00001 9.66683 3.00001C9.31321 3.00001 8.97407 2.85953 8.72402 2.60949C8.47397 2.35944 8.3335 2.0203 8.3335 1.66668C8.3335 1.31305 8.47397 0.973916 8.72402 0.723868C8.97407 0.473819 9.31321 0.333344 9.66683 0.333344C10.0205 0.333344 10.3596 0.473819 10.6096 0.723868C10.8597 0.973916 11.0002 1.31305 11.0002 1.66668ZM16.3335 1.66668C16.3335 2.0203 16.193 2.35944 15.943 2.60949C15.6929 2.85953 15.3538 3.00001 15.0002 3.00001C14.6465 3.00001 14.3074 2.85953 14.0574 2.60949C13.8073 2.35944 13.6668 2.0203 13.6668 1.66668C13.6668 1.31305 13.8073 0.973916 14.0574 0.723868C14.3074 0.473819 14.6465 0.333344 15.0002 0.333344C15.3538 0.333344 15.6929 0.473819 15.943 0.723868C16.193 0.973916 16.3335 1.31305 16.3335 1.66668ZM20.3335 3.00001C20.6871 3.00001 21.0263 2.85953 21.2763 2.60949C21.5264 2.35944 21.6668 2.0203 21.6668 1.66668C21.6668 1.31305 21.5264 0.973916 21.2763 0.723868C21.0263 0.473819 20.6871 0.333344 20.3335 0.333344C19.9799 0.333344 19.6407 0.473819 19.3907 0.723868C19.1406 0.973916 19.0002 1.31305 19.0002 1.66668C19.0002 2.0203 19.1406 2.35944 19.3907 2.60949C19.6407 2.85953 19.9799 3.00001 20.3335 3.00001ZM11.0002 28.3333C11.0002 28.687 10.8597 29.0261 10.6096 29.2762C10.3596 29.5262 10.0205 29.6667 9.66683 29.6667C9.31321 29.6667 8.97407 29.5262 8.72402 29.2762C8.47397 29.0261 8.3335 28.687 8.3335 28.3333C8.3335 27.9797 8.47397 27.6406 8.72402 27.3905C8.97407 27.1405 9.31321 27 9.66683 27C10.0205 27 10.3596 27.1405 10.6096 27.3905C10.8597 27.6406 11.0002 27.9797 11.0002 28.3333ZM16.3335 28.3333C16.3335 28.687 16.193 29.0261 15.943 29.2762C15.6929 29.5262 15.3538 29.6667 15.0002 29.6667C14.6465 29.6667 14.3074 29.5262 14.0574 29.2762C13.8073 29.0261 13.6668 28.687 13.6668 28.3333C13.6668 27.9797 13.8073 27.6406 14.0574 27.3905C14.3074 27.1405 14.6465 27 15.0002 27C15.3538 27 15.6929 27.1405 15.943 27.3905C16.193 27.6406 16.3335 27.9797 16.3335 28.3333ZM20.3335 29.6667C20.6871 29.6667 21.0263 29.5262 21.2763 29.2762C21.5264 29.0261 21.6668 28.687 21.6668 28.3333C21.6668 27.9797 21.5264 27.6406 21.2763 27.3905C21.0263 27.1405 20.6871 27 20.3335 27C19.9799 27 19.6407 27.1405 19.3907 27.3905C19.1406 27.6406 19.0002 27.9797 19.0002 28.3333C19.0002 28.687 19.1406 29.0261 19.3907 29.2762C19.6407 29.5262 19.9799 29.6667 20.3335 29.6667ZM29.6668 20.3333C29.6668 19.9797 29.5264 19.6406 29.2763 19.3905C29.0263 19.1405 28.6871 19 28.3335 19C27.9799 19 27.6407 19.1405 27.3907 19.3905C27.1406 19.6406 27.0002 19.9797 27.0002 20.3333C27.0002 20.687 27.1406 21.0261 27.3907 21.2762C27.6407 21.5262 27.9799 21.6667 28.3335 21.6667C28.6871 21.6667 29.0263 21.5262 29.2763 21.2762C29.5264 21.0261 29.6668 20.687 29.6668 20.3333ZM29.6668 15C29.6668 14.6464 29.5264 14.3073 29.2763 14.0572C29.0263 13.8072 28.6871 13.6667 28.3335 13.6667C27.9799 13.6667 27.6407 13.8072 27.3907 14.0572C27.1406 14.3073 27.0002 14.6464 27.0002 15C27.0002 15.3536 27.1406 15.6928 27.3907 15.9428C27.6407 16.1929 27.9799 16.3333 28.3335 16.3333C28.6871 16.3333 29.0263 16.1929 29.2763 15.9428C29.5264 15.6928 29.6668 15.3536 29.6668 15ZM28.3335 8.33334C28.6871 8.33334 29.0263 8.47382 29.2763 8.72387C29.5264 8.97392 29.6668 9.31306 29.6668 9.66668C29.6668 10.0203 29.5264 10.3594 29.2763 10.6095C29.0263 10.8595 28.6871 11 28.3335 11C27.9799 11 27.6407 10.8595 27.3907 10.6095C27.1406 10.3594 27.0002 10.0203 27.0002 9.66668C27.0002 9.31306 27.1406 8.97392 27.3907 8.72387C27.6407 8.47382 27.9799 8.33334 28.3335 8.33334ZM1.66683 19C2.02045 19 2.35959 19.1405 2.60964 19.3905C2.85969 19.6406 3.00016 19.9797 3.00016 20.3333C3.00016 20.687 2.85969 21.0261 2.60964 21.2762C2.35959 21.5262 2.02045 21.6667 1.66683 21.6667C1.31321 21.6667 0.974069 21.5262 0.72402 21.2762C0.473972 21.0261 0.333496 20.687 0.333496 20.3333C0.333496 19.9797 0.473972 19.6406 0.72402 19.3905C0.974069 19.1405 1.31321 19 1.66683 19ZM1.66683 13.6667C2.02045 13.6667 2.35959 13.8072 2.60964 14.0572C2.85969 14.3073 3.00016 14.6464 3.00016 15C3.00016 15.3536 2.85969 15.6928 2.60964 15.9428C2.35959 16.1929 2.02045 16.3333 1.66683 16.3333C1.31321 16.3333 0.974069 16.1929 0.72402 15.9428C0.473972 15.6928 0.333496 15.3536 0.333496 15C0.333496 14.6464 0.473972 14.3073 0.72402 14.0572C0.974069 13.8072 1.31321 13.6667 1.66683 13.6667ZM3.00016 9.66668C3.00016 9.31306 2.85969 8.97392 2.60964 8.72387C2.35959 8.47382 2.02045 8.33334 1.66683 8.33334C1.31321 8.33334 0.974069 8.47382 0.72402 8.72387C0.473972 8.97392 0.333496 9.31306 0.333496 9.66668C0.333496 10.0203 0.473972 10.3594 0.72402 10.6095C0.974069 10.8595 1.31321 11 1.66683 11C2.02045 11 2.35959 10.8595 2.60964 10.6095C2.85969 10.3594 3.00016 10.0203 3.00016 9.66668ZM21.6668 7.00001H8.3335C7.97987 7.00001 7.64074 7.14049 7.39069 7.39053C7.14064 7.64058 7.00016 7.97972 7.00016 8.33334V21.6667C7.00016 22.0203 7.14064 22.3594 7.39069 22.6095C7.64074 22.8595 7.97987 23 8.3335 23H21.6668C22.0205 23 22.3596 22.8595 22.6096 22.6095C22.8597 22.3594 23.0002 22.0203 23.0002 21.6667V8.33334C23.0002 7.97972 22.8597 7.64058 22.6096 7.39053C22.3596 7.14049 22.0205 7.00001 21.6668 7.00001ZM8.3335 4.33334C7.27263 4.33334 6.25521 4.75477 5.50507 5.50492C4.75492 6.25506 4.3335 7.27248 4.3335 8.33334V21.6667C4.3335 22.7275 4.75492 23.745 5.50507 24.4951C6.25521 25.2453 7.27263 25.6667 8.3335 25.6667H21.6668C22.7277 25.6667 23.7451 25.2453 24.4953 24.4951C25.2454 23.745 25.6668 22.7275 25.6668 21.6667V8.33334C25.6668 7.27248 25.2454 6.25506 24.4953 5.50492C23.7451 4.75477 22.7277 4.33334 21.6668 4.33334H8.3335ZM17.6668 12.3333H12.3335V17.6667H17.6668V12.3333ZM11.0002 9.66668C10.2638 9.66668 9.66683 10.2636 9.66683 11V19C9.66683 19.7364 10.2638 20.3333 11.0002 20.3333H19.0002C19.7365 20.3333 20.3335 19.7364 20.3335 19V11C20.3335 10.2636 19.7365 9.66668 19.0002 9.66668H11.0002Z" fill="white"/>
</svg>
