<svg width="30" height="30" viewBox="0 0 30 30" fill="none" xmlns="http://www.w3.org/2000/svg">
    <path
        d="M26.9202 13.6667C26.6181 10.9628 25.4057 8.44206 23.4819 6.51827C21.5581 4.59448 19.0373 3.38203 16.3335 3.08001V1.66668C16.3335 0.930297 15.7365 0.333344 15.0002 0.333344C14.2638 0.333344 13.6668 0.930297 13.6668 1.66668V3.08001C10.963 3.38203 8.44221 4.59448 6.51842 6.51827C4.59463 8.44206 3.38218 10.9628 3.08016 13.6667H1.66683C0.93045 13.6667 0.333496 14.2636 0.333496 15C0.333496 15.7364 0.93045 16.3333 1.66683 16.3333H3.08016C3.38218 19.0372 4.59463 21.558 6.51842 23.4818C8.44221 25.4055 10.963 26.618 13.6668 26.92V28.3333C13.6668 29.0697 14.2638 29.6667 15.0002 29.6667C15.7365 29.6667 16.3335 29.0697 16.3335 28.3333V26.92C19.0373 26.618 21.5581 25.4055 23.4819 23.4818C25.4057 21.558 26.6181 19.0372 26.9202 16.3333H28.3335C29.0699 16.3333 29.6668 15.7364 29.6668 15C29.6668 14.2636 29.0699 13.6667 28.3335 13.6667H26.9202ZM15.0002 24.3333C9.84016 24.3333 5.66683 20.16 5.66683 15C5.66683 9.84001 9.84016 5.66668 15.0002 5.66668C20.1602 5.66668 24.3335 9.84001 24.3335 15C24.3335 20.16 20.1602 24.3333 15.0002 24.3333Z"
        fill="white" />
</svg>