<svg width="22" height="28" viewBox="0 0 22 28" fill="none" xmlns="http://www.w3.org/2000/svg">
<path d="M21.6663 8.66666C21.6663 9.40304 21.0694 9.99999 20.333 9.99999H14.9997V26C14.9997 26.7364 14.4027 27.3333 13.6663 27.3333C12.93 27.3333 12.333 26.7364 12.333 26V20.6667C12.333 19.9303 11.7361 19.3333 10.9997 19.3333C10.2633 19.3333 9.66634 19.9303 9.66634 20.6667V26C9.66634 26.7364 9.06939 27.3333 8.33301 27.3333C7.59663 27.3333 6.99967 26.7364 6.99967 26V9.99999H1.66634C0.92996 9.99999 0.333008 9.40304 0.333008 8.66666C0.333008 7.93028 0.929961 7.33332 1.66634 7.33332H20.333C21.0694 7.33332 21.6663 7.93028 21.6663 8.66666ZM10.9997 0.666656C11.7069 0.666656 12.3852 0.947608 12.8853 1.4477C13.3854 1.9478 13.6663 2.62608 13.6663 3.33332C13.6663 4.04057 13.3854 4.71884 12.8853 5.21894C12.3852 5.71904 11.7069 5.99999 10.9997 5.99999C10.2924 5.99999 9.61415 5.71904 9.11406 5.21894C8.61396 4.71884 8.33301 4.04057 8.33301 3.33332C8.33301 1.85332 9.51967 0.666656 10.9997 0.666656Z" fill="white"/>
</svg>
